PathFileType	4	(X/Y/Z)	63_1_11_p1_0-355_filt_butterworth.trc
DataRate	CameraRate	NumFrames	NumMarkers	Units	OrigDataRate	OrigDataStartFrame	OrigNumFrames
59.0	59.0	7	27	m	59.0	177	355
Frame#	Time	RHip			RKnee			RAnkle			RBigToe			RSmallToe			RHeel			LHip			LKnee			LAnkle			LBigToe			LSmallToe			LHeel			Neck			Head			Nose			RShoulder			RElbow			RWrist			RThumb			RIndex			RPinky			LShoulder			LElbow			LWrist			LThumb			LIndex			LPinky			
		X1	Y1	Z1	X2	Y2	Z2	X3	Y3	Z3	X4	Y4	Z4	X5	Y5	Z5	X6	Y6	Z6	X7	Y7	Z7	X8	Y8	Z8	X9	Y9	Z9	X10	Y10	Z10	X11	Y11	Z11	X12	Y12	Z12	X13	Y13	Z13	X14	Y14	Z14	X15	Y15	Z15	X16	Y16	Z16	X17	Y17	Z17	X18	Y18	Z18	X19	Y19	Z19	X20	Y20	Z20	X21	Y21	Z21	X22	Y22	Z22	X23	Y23	Z23	X24	Y24	Z24	X25	Y25	Z25	X26	Y26	Z26	X27	Y27	Z27	
177	3.0	0.3107199719755113	0.5412635718022712	0.6701514522038842	0.33501542146474167	0.6933198496581056	1.1312081464332577	0.3283691805519203	0.8312720559510058	1.569949061203505	0.29095346392086124	0.6405233554339793	1.6207921284250364	0.3628632651353469	0.6650340883600359	1.6134403799044295	0.31851425355154056	0.9677817878041959	1.6298003685237585	0.09992188206982087	0.5098095984310661	0.6964660597517203	0.10428033590290192	0.7079953143008728	1.1494210146165544	0.12167694365731463	0.8621559337820481	1.5615780787487112	0.12631772602368568	0.6502674135923782	1.602317554264586	0.07789502678032943	0.7285730239478482	1.6093103702544977	0.1340521392349181	0.9553137925882527	1.627423114868757	0.19521588214679364	0.3673508696123904	0.16228920177744527	0.22220963785254896	0.19778771429895953	-0.05440318835910979	0.24546932429870882	0.2151178804632779	0.09433610677281627	0.33980894424514724	0.4045493719968377	0.23677149969658814	0.3983655197462857	0.5201652224146248	0.48764371816957763	0.34687243488301645	0.3258322520203003	0.46859445887629625	0.2834541480741793	0.16883912871071066	0.3795556438224551	0.29584216359310417	0.19322960863878005	0.40879286364693346	0.29756679000170416	0.2216566915906725	0.4626831450300493	0.0234956073982521	0.3731054878320943	0.26285628047081727	-0.005198466593387073	0.4503838736807794	0.5166140421088844	0.016285275118208927	0.48824465507162007	0.7872592989034279	0.06829331271494285	0.4624224072410084	0.9008643099314672	0.03893328766688002	0.49583953152048205	0.9322103093438403	0.008109615831178122	0.5070464011094474	0.9285354958799497
178	3.016949152542373	0.3106717695222422	0.5458164619099105	0.6688393847638572	0.3350242116122011	0.6934534782078196	1.131406556106521	0.32808108867933367	0.8319986099370409	1.5701045193872785	0.2910600579581647	0.6364394236994395	1.6208451368265249	0.36273029117022765	0.6652037528307087	1.6136835651027144	0.31705427689138216	0.9635778492178418	1.629858838144795	0.10039309828187123	0.5141585980482599	0.6935527082027493	0.1042944689456112	0.708177457100259	1.149115762424981	0.12280718223873864	0.8558978363283509	1.5598856569160082	0.1269657129841134	0.6454616299734515	1.599650779968902	0.07771410236993452	0.728839055708457	1.6102236953176217	0.13491484719821809	0.9554368215846036	1.6274332048531779	0.19631056353699758	0.3626998917239354	0.16307425059661226	0.22840503079680283	0.19811021164736714	-0.05484108332802646	0.2505227029152683	0.21739274903237332	0.09346531511522473	0.336481077171614	0.3978119416885103	0.23620824274566815	0.3982138451102575	0.5074193410301836	0.4913829025004417	0.35115594432322633	0.3105224087423847	0.444902914100035	0.2878723624336362	0.1774129476450319	0.3470058455142061	0.294340005994713	0.18878328336250833	0.37491587417867306	0.2988177685875007	0.2146943564104239	0.4342730635211235	0.02329516368557839	0.372897152717467	0.2622491406564588	-0.0026668588958897563	0.4418057575608189	0.5151569498797548	0.01741950955034558	0.4880622569116966	0.7872458101945394	0.0696165699105223	0.45955894489352933	0.9005155147945558	0.04198986783765639	0.4951720876133805	0.9323137563218402	0.009240751840706569	0.5072558569004475	0.9290749861846959
179	3.0338983050847457	0.3112244943383399	0.5529082820176593	0.6682890356746355	0.3349683057022815	0.6936202881678516	1.131471524368181	0.3276776398742099	0.8328946274967305	1.5707026084024465	0.2904661060481423	0.6327336957971925	1.620609748209452	0.36234969115102345	0.6652927378048258	1.612718453726702	0.3150198723556027	0.9583013893344522	1.6299915888616594	0.10030095604266787	0.5189261049240991	0.6912900840401882	0.10429955694477192	0.7083860556160028	1.1489770626449816	0.12317242195263285	0.8514927806011132	1.559961758795926	0.12785009603611688	0.6406562026432627	1.5961050549494178	0.07770770352544382	0.7288369856446014	1.6102829157213336	0.13672383590151654	0.9555758842250789	1.6274389575224504	0.1974075833795613	0.3582666710145057	0.16514457551036632	0.23410060332080612	0.19851054730762452	-0.05520040653679784	0.2544323554791215	0.22120991517669156	0.09207464285979261	0.33463978350480195	0.38894749370252424	0.23607550223379895	0.3976405281269428	0.4936954103548201	0.49265341001180907	0.3534912583038016	0.3018235679924785	0.42519434820441904	0.2895741508227565	0.1899695673522728	0.3196773286110105	0.2941318278913763	0.18492779606916163	0.3434360010477311	0.30002125628380005	0.20744618880721719	0.40658613247129516	0.02313471099345253	0.373183236272086	0.2620514466226882	-0.0011452869433758136	0.4365238314987322	0.5133217404949486	0.019188626629694387	0.4882164113639895	0.7873823464486033	0.07241839307369409	0.45523781892055315	0.9003338929396629	0.04665669346329254	0.4913955889618558	0.9309047445455858	0.010647388954119381	0.5073781298257619	0.9289147824167472
180	3.0508474576271185	0.31212653253301503	0.5592788987730087	0.6680486195874894	0.3347777668764328	0.693505769905282	1.1310552292351124	0.32737626590650315	0.8334376599057173	1.5719147503580593	0.2890466695263736	0.6307141374084241	1.6198888191061145	0.3618240355866296	0.665272078860277	1.6107072090463022	0.3133641583218119	0.954654041441982	1.6301889395051683	0.09926886373814987	0.525044460192535	0.6905404611364199	0.10425300989969846	0.7087216012538342	1.1495910117297052	0.12304693921799932	0.8500324478051628	1.5608659471168131	0.1284668436198475	0.6398883155664605	1.593514237214536	0.07783954514404337	0.7286240869883873	1.6096665502480083	0.13863445766489652	0.955713234535438	1.6273590069660282	0.19857446296840908	0.3539303208233906	0.16747370698856884	0.2380012544655688	0.19890257005837797	-0.05542077244793022	0.2571249449706357	0.22447371510378847	0.09062080345671011	0.33462558069260384	0.38160156986245425	0.23577785828961445	0.39640237581951604	0.47695020630389884	0.49226112297251573	0.3546185400230716	0.2943923435113419	0.4098041512740743	0.28762975526489226	0.20373960524194432	0.2958693446654517	0.29561881780331817	0.1822777427266519	0.3126879428660174	0.30117979201846967	0.2029095968138147	0.37808712647361614	0.023091841249111	0.3733547433636428	0.26201140623741326	0.00012087361422723837	0.43223761111369663	0.5117016574390001	0.021700165862871816	0.4885437854608396	0.7874339247871878	0.07594650033908411	0.4516587909324088	0.9007598726846453	0.0512706936098125	0.4859584411390522	0.928790321406617	0.011451840743044691	0.5075474083642958	0.9276123764327859
181	3.067796610169492	0.31273151022707957	0.5627989006117929	0.6671189395537074	0.3344143244589387	0.6928186607706148	1.1298745054604127	0.32730197169197706	0.8334405158217356	1.5734027447082082	0.28733779353479943	0.6300887562704013	1.6186399860449363	0.36137959814213655	0.6652393362377793	1.6088739373635401	0.31261723759311105	0.9535793691440514	1.630403022164043	0.09769216443975948	0.5311554048897879	0.6907846605797368	0.10413325442698373	0.7093655685858056	1.1510577712467522	0.12286494920427365	0.8502522015014906	1.5615296139491535	0.12836434634720048	0.6433812973270746	1.593011466297703	0.07793438983094154	0.7284397263039218	1.6092241689191535	0.13947882458409738	0.9558521123841521	1.6270089079149304	0.199450934764013	0.35084528108632984	0.16907108818279043	0.2401702101388598	0.1992993004052507	-0.055504775992312946	0.2585495386330611	0.2256960227632138	0.08932370617307864	0.33686663430147035	0.3792890185491729	0.23408620997559568	0.3944649793420616	0.45727588140968617	0.4909275586460733	0.3543579569669085	0.2854318116507305	0.39749430882013354	0.283661227010221	0.21990401515128138	0.27559878104566027	0.2980014060064198	0.18197979032153808	0.2841106732187754	0.30306078319866336	0.20242902057521145	0.3514125903693902	0.023115113603763646	0.37341004991241084	0.26201662672410814	0.0010135086582001604	0.4291852108200725	0.510712832799738	0.02434085456503034	0.48893939590603264	0.7873166079027591	0.07878966847908157	0.45010574714085244	0.9012156506949982	0.054494502314771584	0.48191587206408165	0.9271605506290453	0.011652697161493648	0.5077745939254765	0.9250088237825764
182	3.0847457627118646	0.312803854729806	0.5634478147858206	0.6646837797931173	0.3339860194807198	0.6916428506457042	1.1282464427338723	0.3273672651957914	0.8332138752566205	1.574487643247764	0.2861328622286065	0.6300635734271558	1.6172000148416266	0.36116891086878256	0.6652676698518105	1.6080681699186252	0.3125313198686512	0.953902438336117	1.6305474577787573	0.0964856495160265	0.5348282900395592	0.6912595551030278	0.10398272152532206	0.7102302651498419	1.1527534335944285	0.12279124724466314	0.850749081539574	1.5617101102170916	0.12746043082743436	0.647433205200746	1.5943065721557022	0.07787333139036862	0.7284598045686819	1.6095049194932745	0.13929244952475428	0.9560517248977042	1.6264408406888806	0.19982976204129305	0.3496785075655419	0.16966833146471857	0.24195841410307084	0.19949244410562114	-0.05552453364897472	0.2591910821259058	0.2243480814927606	0.08829641527359348	0.34082857514866705	0.3812797053394275	0.23061164387544894	0.39274948806116405	0.43603690696997655	0.4888793943688763	0.35288060842017205	0.2773655255293271	0.38686027433529774	0.2802371699822471	0.23875938739633734	0.2598041215117393	0.30100155253560373	0.18706906062720047	0.26097128408990156	0.30722471801025136	0.20766123714805534	0.3298601237910645	0.02321434954725675	0.37354528401741055	0.26205987254754676	0.0013513263438412184	0.4278638436274955	0.5104426339015764	0.026704494580238082	0.4894104648133258	0.7868491328191235	0.0800677218251389	0.4501845211465002	0.9009269152377439	0.05628482155966094	0.48032649502068725	0.9264347817027139	0.012099840251581078	0.5074111787722513	0.9213360320376659
183	3.101694915254237	0.3124097543676111	0.5630604786011152	0.6613629858724671	0.33367922488547064	0.6904968428993753	1.1269702300325348	0.327435869736838	0.8330714600724652	1.574887385319132	0.28562913084061214	0.6299555987712632	1.6161452541921597	0.36115661364251506	0.6653657348563415	1.6080344947041978	0.31266159134012034	0.954363271451799	1.630559964937068	0.09620361468362054	0.5350987161165233	0.6914799848847795	0.10379717036753358	0.710667386321878	1.1538944312091186	0.12279933319290218	0.851001771210737	1.5616316131766572	0.126192390475556	0.6494261114952682	1.596246650517076	0.07773018575956296	0.728622372567583	1.6101439578025674	0.13891872708853453	0.9564715226217834	1.6263454747774209	0.19988819782138675	0.3497051992733226	0.16967626567416688	0.24446777340952666	0.19965070831025578	-0.05548229430305201	0.25980903519196186	0.2207158525646733	0.08814299697617353	0.3444086251978662	0.3836990014451922	0.22657136232720165	0.39205352061026905	0.41522777935140315	0.48644144455396543	0.35130245825435535	0.272827655280209	0.3768272338495856	0.2791579864600364	0.25635793223659326	0.24866492306128885	0.3052385054498924	0.19962811723616386	0.24397703169789378	0.3142192349962535	0.2186585643190278	0.3140266485513027	0.023476248586547125	0.3734301893265921	0.26222130273210187	0.0013322853370740012	0.42768194786801267	0.5108317771416542	0.028721542742461106	0.48995342305032163	0.7858418831121061	0.08003727305457554	0.45095696151349285	0.899453053346321	0.057924735710800514	0.4787843623040054	0.9256837189084898	0.013451797481104975	0.5057393966246155	0.9175295766509438
